<svg width="24" height="24" viewBox="0 0 24 24" fill="none" xmlns="http://www.w3.org/2000/svg">
<path d="M16.1767 2.57354V4.41178H19.4855C19.778 4.41178 20.0586 4.52798 20.2654 4.73482C20.4723 4.94167 20.5885 5.2222 20.5885 5.51472C20.5885 5.80724 20.4723 6.08778 20.2654 6.29462C20.0586 6.50146 19.778 6.61766 19.4855 6.61766H4.04435C3.75183 6.61766 3.47129 6.50146 3.26445 6.29462C3.05761 6.08778 2.94141 5.80724 2.94141 5.51472C2.94141 5.2222 3.05761 4.94167 3.26445 4.73482C3.47129 4.52798 3.75183 4.41178 4.04435 4.41178H7.35317V2.57354C7.35317 1.15296 8.50611 1.52588e-05 9.9267 1.52588e-05H13.6032C15.0238 1.52588e-05 16.1767 1.15296 16.1767 2.57354ZM6.61199 9.81619L7.58258 19.5221C7.5917 19.6128 7.63423 19.6969 7.7019 19.7581C7.76957 19.8192 7.85755 19.853 7.94876 19.853H15.5811C15.6723 19.853 15.7603 19.8192 15.828 19.7581C15.8956 19.6969 15.9382 19.6128 15.9473 19.5221L16.9179 9.81619C16.9543 9.5313 17.1005 9.27187 17.3253 9.09307C17.55 8.91427 17.8357 8.8302 18.1215 8.85874C18.4073 8.88729 18.6707 9.02618 18.8556 9.2459C19.0406 9.46562 19.1326 9.74883 19.112 10.0353L18.1414 19.7412C18.078 20.3762 17.7808 20.965 17.3077 21.3932C16.8346 21.8215 16.2193 22.0587 15.5811 22.0588H7.94876C7.31083 22.0588 6.69567 21.8217 6.22259 21.3938C5.74952 20.9658 5.45226 20.3774 5.38847 19.7427L4.41788 10.0368C4.39946 9.89075 4.41045 9.74251 4.45022 9.6008C4.48998 9.45909 4.5577 9.32677 4.6494 9.21163C4.7411 9.0965 4.85491 9.00089 4.98413 8.93042C5.11335 8.85996 5.25537 8.81608 5.40182 8.80135C5.54827 8.78663 5.69618 8.80137 5.83684 8.8447C5.9775 8.88803 6.10807 8.95907 6.22085 9.05365C6.33363 9.14822 6.42634 9.26441 6.49352 9.39538C6.56069 9.52634 6.60098 9.66942 6.61199 9.81619ZM9.55905 2.57354V4.41178H13.9708V2.57354C13.9708 2.47604 13.9321 2.38253 13.8631 2.31358C13.7942 2.24463 13.7007 2.2059 13.6032 2.2059H9.9267C9.82919 2.2059 9.73568 2.24463 9.66673 2.31358C9.59779 2.38253 9.55905 2.47604 9.55905 2.57354Z" fill="#D9D9D9"/>
</svg>
