<svg width="16" height="16" viewBox="0 0 16 16" fill="none" xmlns="http://www.w3.org/2000/svg">
<path d="M15.8297 4.18947C15.7839 4.12433 15.7231 4.07117 15.6524 4.03446C15.5817 3.99774 15.5032 3.97855 15.4235 3.9785H4.81203L4.00878 1.2085C3.69378 0.11775 2.94527 0 2.63827 0H0.496516C0.222 0 0 0.22225 0 0.4965C0 0.77075 0.22225 0.992984 0.4965 0.992984H2.638C2.70575 0.992984 2.9125 0.992984 3.05352 1.48023L5.81677 11.6355C5.87677 11.8497 6.07202 11.9977 6.29475 11.9977H13.0442C13.2538 11.9977 13.4408 11.8665 13.5115 11.6692L15.8905 4.64297C15.9453 4.49072 15.9225 4.32122 15.8298 4.18947H15.8297ZM12.6948 11.005H6.67161L5.09111 4.97175H14.7176L12.6948 11.005ZM11.7101 13.004C11.0196 13.004 10.4601 13.5635 10.4601 14.254C10.4601 14.9445 11.0196 15.504 11.7101 15.504C12.4006 15.504 12.9601 14.9445 12.9601 14.254C12.9601 13.5635 12.4006 13.004 11.7101 13.004ZM7.21011 13.004C6.51961 13.004 5.96011 13.5635 5.96011 14.254C5.96011 14.9445 6.51961 15.504 7.21011 15.504C7.90061 15.504 8.46011 14.9445 8.46011 14.254C8.46011 13.5635 7.90061 13.004 7.21011 13.004Z" fill="black"/>
</svg>
