<svg width="20" height="20" viewBox="0 0 20 20" fill="none" xmlns="http://www.w3.org/2000/svg">
<path d="M10 20C15.5228 20 20 15.5228 20 10C20 4.47716 15.5228 0 10 0C4.47716 0 0 4.47716 0 10C0 15.5228 4.47716 20 10 20Z" fill="white"/>
<path d="M4.66665 14.6667L4.04665 14.42C4.00235 14.5315 3.98894 14.6528 4.00784 14.7713C4.02674 14.8897 4.07724 15.0009 4.15403 15.093C4.23082 15.1851 4.33104 15.2549 4.44414 15.2948C4.55724 15.3348 4.67902 15.3435 4.79665 15.32L4.66665 14.6667ZM7.80398 14.0427L8.11998 13.4553L7.90865 13.342L7.67398 13.3887L7.80398 14.0427ZM5.74931 11.9447L6.36931 12.1913L6.47798 11.9153L6.34731 11.6493L5.74931 11.9447ZM14.6666 9.99999C14.6666 12.164 12.7646 14 10.3133 14V15.3333C13.4073 15.3333 16 12.9907 16 9.99999H14.6666ZM5.96065 9.99999C5.96065 7.83599 7.86331 5.99999 10.314 5.99999V4.66666C7.21998 4.66666 4.62665 7.00932 4.62665 9.99999H5.96065ZM10.314 5.99999C12.7646 5.99999 14.6666 7.83599 14.6666 9.99999H16C16 7.00932 13.408 4.66666 10.314 4.66666V5.99999ZM10.3133 14C9.50998 14 8.76198 13.8 8.11998 13.4553L7.48798 14.6293C8.35721 15.0942 9.32757 15.3361 10.3133 15.3333V14ZM4.79665 15.32L7.93398 14.696L7.67398 13.3887L4.53665 14.0127L4.79665 15.3207V15.32ZM6.34731 11.6493C6.0927 11.1368 5.9608 10.5723 5.96065 9.99999H4.62665C4.62665 10.8 4.81465 11.5587 5.15065 12.24L6.34731 11.6493ZM5.12998 11.698L4.04665 14.4207L5.28531 14.9127L6.36798 12.1907L5.12931 11.698H5.12998Z" fill="black"/>
<path d="M7.99992 10.6666C8.36811 10.6666 8.66659 10.3682 8.66659 9.99998C8.66659 9.63179 8.36811 9.33331 7.99992 9.33331C7.63173 9.33331 7.33325 9.63179 7.33325 9.99998C7.33325 10.3682 7.63173 10.6666 7.99992 10.6666Z" fill="black"/>
<path d="M10.3334 10.6666C10.7016 10.6666 11.0001 10.3682 11.0001 9.99998C11.0001 9.63179 10.7016 9.33331 10.3334 9.33331C9.96522 9.33331 9.66675 9.63179 9.66675 9.99998C9.66675 10.3682 9.96522 10.6666 10.3334 10.6666Z" fill="black"/>
<path d="M12.6667 10.6666C13.0349 10.6666 13.3333 10.3682 13.3333 9.99998C13.3333 9.63179 13.0349 9.33331 12.6667 9.33331C12.2985 9.33331 12 9.63179 12 9.99998C12 10.3682 12.2985 10.6666 12.6667 10.6666Z" fill="black"/>
</svg>
