<svg width="22" height="22" viewBox="0 0 22 22" fill="none" xmlns="http://www.w3.org/2000/svg">
<path d="M10.6169 18.0195C9.20132 18.0195 7.86538 17.4709 6.86564 16.4712C6.36953 15.9792 5.97635 15.3933 5.70901 14.7477C5.44167 14.1022 5.30553 13.4098 5.30852 12.7111C5.30852 11.3132 5.85705 9.9596 6.86564 8.95986L10.6169 5.20862M15.6244 7.7124L10.6169 2.70484L5.60932 7.7124C2.84898 10.4727 2.84898 14.9583 5.60932 17.7187C6.26654 18.3765 7.04724 18.8981 7.90658 19.2533C8.76593 19.6086 9.68699 19.7906 10.6169 19.7889C12.4306 19.7889 14.2443 19.0988 15.6244 17.7187C18.3848 14.9583 18.3848 10.4727 15.6244 7.7124Z" fill="black"/>
</svg>
