<svg width="296" height="290" viewBox="0 0 296 290" fill="none" xmlns="http://www.w3.org/2000/svg">
<path d="M294.324 78.3634C293.472 77.145 292.341 76.1506 291.026 75.4639C289.712 74.7772 288.253 74.4182 286.772 74.4173H89.4707L74.5358 22.6048C68.6789 2.2025 54.7617 0 49.0536 0H9.23178C4.12767 0 0 4.15715 0 9.28696C0 14.4168 4.13232 18.5736 9.23149 18.5736H49.0487C50.3083 18.5736 54.1525 18.5736 56.7744 27.6876L108.152 217.64C109.267 221.647 112.898 224.416 117.039 224.416H242.533C246.429 224.416 249.906 221.961 251.221 218.271L295.454 86.846C296.472 83.9982 296.049 80.8278 294.324 78.3634ZM236.037 205.847H124.046L94.6596 92.9958H273.646L236.037 205.847ZM217.728 243.238C204.889 243.238 194.486 253.703 194.486 266.619C194.486 279.535 204.889 290 217.728 290C230.566 290 240.969 279.535 240.969 266.619C240.969 253.703 230.566 243.238 217.728 243.238ZM134.058 243.238C121.22 243.238 110.817 253.703 110.817 266.619C110.817 279.535 121.22 290 134.058 290C146.897 290 157.3 279.535 157.3 266.619C157.3 253.703 146.897 243.238 134.058 243.238Z" fill="#D9D9D9"/>
</svg>
