<svg width="15" height="16" viewBox="0 0 15 16" fill="none" xmlns="http://www.w3.org/2000/svg">
<path fill-rule="evenodd" clip-rule="evenodd" d="M5.30758 1.94287C5.35698 1.97246 5.40009 2.01149 5.43441 2.05774C5.46873 2.10399 5.49361 2.15655 5.50762 2.21242C5.52162 2.26828 5.52449 2.32636 5.51605 2.38333C5.5076 2.44031 5.48802 2.49505 5.45841 2.54446L3.22567 6.2654H11.3235L9.08988 2.54446C9.03016 2.44468 9.01244 2.32525 9.04077 2.21243C9.06901 2.09961 9.14092 2.00264 9.24072 1.94287C9.34052 1.88309 9.45996 1.8654 9.57273 1.89369C9.6856 1.92198 9.78259 1.99392 9.84231 2.0937L12.346 6.2654H13.4133C13.6459 6.2654 13.869 6.35779 14.0334 6.52226C14.1979 6.68672 14.2903 6.90978 14.2903 7.14237V8.01933C14.2903 8.2519 14.1979 8.47497 14.0334 8.63943C13.869 8.80389 13.6459 8.89629 13.4133 8.89629V12.8426C13.4133 13.424 13.1823 13.9817 12.7712 14.3929C12.3601 14.804 11.8024 15.035 11.2209 15.035H3.32828C2.74682 15.035 2.18917 14.804 1.77801 14.3929C1.36686 13.9817 1.13587 13.424 1.13587 12.8426V8.89629C0.903287 8.89629 0.680229 8.80389 0.515767 8.63943C0.351305 8.47497 0.258911 8.2519 0.258911 8.01933V7.14237C0.258911 6.90978 0.351305 6.68672 0.515767 6.52226C0.680229 6.35779 0.903287 6.2654 1.13587 6.2654H2.20314L4.7051 2.0937C4.73469 2.04429 4.77373 2.00119 4.81998 1.96687C4.86623 1.93254 4.91878 1.90767 4.97466 1.89366C5.03052 1.87965 5.0886 1.87679 5.14557 1.88523C5.20254 1.89367 5.25817 1.91326 5.30758 1.94287ZM2.01283 8.89629V12.8426C2.01283 13.1915 2.15142 13.5261 2.39812 13.7728C2.64481 14.0195 2.97939 14.158 3.32828 14.158H11.2209C11.5698 14.158 11.9044 14.0195 12.1511 13.7728C12.3978 13.5261 12.5363 13.1915 12.5363 12.8426V8.89629H2.01283ZM1.13587 7.14237V8.01933H13.4133V7.14237H1.13587ZM3.76676 9.77325C3.88305 9.77325 3.99457 9.81946 4.07681 9.90163C4.15904 9.98389 4.20524 10.0954 4.20524 10.2117V12.8426C4.20524 12.9589 4.15904 13.0704 4.07681 13.1527C3.99457 13.2349 3.88305 13.2811 3.76676 13.2811C3.65046 13.2811 3.53893 13.2349 3.4567 13.1527C3.37447 13.0704 3.32828 12.9589 3.32828 12.8426V10.2117C3.32828 10.0954 3.37447 9.98389 3.4567 9.90163C3.53893 9.81946 3.65046 9.77325 3.76676 9.77325ZM5.52068 9.77325C5.63697 9.77325 5.74849 9.81946 5.83073 9.90163C5.91296 9.98389 5.95916 10.0954 5.95916 10.2117V12.8426C5.95916 12.9589 5.91296 13.0704 5.83073 13.1527C5.74849 13.2349 5.63697 13.2811 5.52068 13.2811C5.40438 13.2811 5.29285 13.2349 5.21062 13.1527C5.12839 13.0704 5.0822 12.9589 5.0822 12.8426V10.2117C5.0822 10.0954 5.12839 9.98389 5.21062 9.90163C5.29285 9.81946 5.40438 9.77325 5.52068 9.77325ZM7.2746 9.77325C7.39089 9.77325 7.50241 9.81946 7.58465 9.90163C7.66688 9.98389 7.71308 10.0954 7.71308 10.2117V12.8426C7.71308 12.9589 7.66688 13.0704 7.58465 13.1527C7.50241 13.2349 7.39089 13.2811 7.2746 13.2811C7.1583 13.2811 7.04677 13.2349 6.96454 13.1527C6.88232 13.0704 6.83612 12.9589 6.83612 12.8426V10.2117C6.83612 10.0954 6.88232 9.98389 6.96454 9.90163C7.04677 9.81946 7.1583 9.77325 7.2746 9.77325ZM9.02849 9.77325C9.14478 9.77325 9.25633 9.81946 9.33859 9.90163C9.42076 9.98389 9.46697 10.0954 9.46697 10.2117V12.8426C9.46697 12.9589 9.42076 13.0704 9.33859 13.1527C9.25633 13.2349 9.14478 13.2811 9.02849 13.2811C8.91221 13.2811 8.80069 13.2349 8.71846 13.1527C8.63624 13.0704 8.59004 12.9589 8.59004 12.8426V10.2117C8.59004 10.0954 8.63624 9.98389 8.71846 9.90163C8.80069 9.81946 8.91221 9.77325 9.02849 9.77325ZM10.7824 9.77325C10.8987 9.77325 11.0102 9.81946 11.0925 9.90163C11.1747 9.98389 11.2209 10.0954 11.2209 10.2117V12.8426C11.2209 12.9589 11.1747 13.0704 11.0925 13.1527C11.0102 13.2349 10.8987 13.2811 10.7824 13.2811C10.6661 13.2811 10.5546 13.2349 10.4724 13.1527C10.3901 13.0704 10.3439 12.9589 10.3439 12.8426V10.2117C10.3439 10.0954 10.3901 9.98389 10.4724 9.90163C10.5546 9.81946 10.6661 9.77325 10.7824 9.77325Z" fill="#426F77"/>
</svg>
