<svg width="38" height="37" viewBox="0 0 38 37" fill="none" xmlns="http://www.w3.org/2000/svg">
<g clip-path="url(#clip0_2_48)">
<g clip-path="url(#clip1_2_48)">
<path fill-rule="evenodd" clip-rule="evenodd" d="M8.5809 7.26233L16.3483 3.64481C17.9557 2.89619 19.7905 2.89619 21.398 3.64481L29.1345 7.24799C31.3969 8.30164 32.8819 10.6698 32.7234 13.2588C32.1154 23.1896 29.4059 27.679 22.0819 32.8872C20.149 34.2618 17.5993 34.2584 15.665 32.8861C8.3634 27.7061 5.55342 23.2793 4.99449 13.224C4.85152 10.652 6.33418 8.3087 8.5809 7.26233ZM24.3551 16.1781C24.7756 15.6975 24.7269 14.9671 24.2464 14.5465C23.7657 14.126 23.0353 14.1747 22.6148 14.6553L18.1903 19.7119C18.0545 19.867 17.8205 19.8878 17.6595 19.7589L14.9573 17.5972C14.4586 17.1983 13.731 17.2791 13.3321 17.7777C12.9332 18.2764 13.014 19.004 13.5127 19.4029L16.2149 21.5647C17.3423 22.4666 18.9799 22.3212 19.9307 21.2346L24.3551 16.1781Z" fill="black"/>
</g>
</g>
<defs>
<clipPath id="clip0_2_48">
<rect width="37" height="37" fill="white" transform="translate(0.359985)"/>
</clipPath>
<clipPath id="clip1_2_48">
<rect width="37" height="37" fill="white" transform="translate(0.359985)"/>
</clipPath>
</defs>
</svg>
