<svg width="19" height="15" viewBox="0 0 19 15" fill="none" xmlns="http://www.w3.org/2000/svg">
<path d="M9.50641 0.118561C8.69368 0.118561 7.91424 0.441417 7.33955 1.0161C6.76487 1.59079 6.44201 2.37023 6.44201 3.18296H8.1931C8.1931 2.83465 8.33146 2.5006 8.57776 2.25431C8.82405 2.00801 9.1581 1.86965 9.50641 1.86965C9.85473 1.86965 10.1888 2.00801 10.4351 2.25431C10.6814 2.5006 10.8197 2.83465 10.8197 3.18296C10.8197 3.53128 10.6814 3.86532 10.4351 4.11162C10.1888 4.35791 9.85473 4.49628 9.50641 4.49628C9.02486 4.49628 8.63087 4.89027 8.63087 5.37182V6.90402L1.10119 12.5513C0.954185 12.6615 0.845594 12.8153 0.790802 12.9907C0.73601 13.1661 0.737796 13.3543 0.795907 13.5286C0.854017 13.7029 0.965506 13.8545 1.11458 13.962C1.26366 14.0694 1.44276 14.1273 1.62652 14.1273H17.3863C17.5701 14.1273 17.7492 14.0694 17.8982 13.962C18.0473 13.8545 18.1588 13.7029 18.2169 13.5286C18.275 13.3543 18.2768 13.1661 18.222 12.9907C18.1672 12.8153 18.0586 12.6615 17.9116 12.5513L10.382 6.90402V6.11603C11.0138 5.92766 11.568 5.54053 11.9623 5.01214C12.3567 4.48375 12.57 3.84227 12.5708 3.18296C12.5708 2.37023 12.248 1.59079 11.6733 1.0161C11.0986 0.441417 10.3191 0.118561 9.50641 0.118561ZM9.50641 8.43623L14.7597 12.3762H4.25315L9.50641 8.43623Z" fill="black"/>
</svg>
