<svg width="20" height="20" viewBox="0 0 20 20" fill="none" xmlns="http://www.w3.org/2000/svg">
<g clip-path="url(#clip0_2_16)">
<path d="M10.001 19.9991C15.5238 19.9991 20.001 15.522 20.001 9.99915C20.001 4.47631 15.5238 -0.000854492 10.001 -0.000854492C4.47814 -0.000854492 0.000976562 4.47631 0.000976562 9.99915C0.000976562 15.522 4.47814 19.9991 10.001 19.9991Z" fill="#34AADF"/>
<path d="M4.16136 9.91312C4.16136 9.91312 9.16136 7.86112 10.8954 7.13856C11.5602 6.84956 13.8145 5.92468 13.8145 5.92468C13.8145 5.92468 14.855 5.52008 14.7683 6.50272C14.7394 6.90736 14.5082 8.32352 14.277 9.85532C13.9301 12.023 13.5544 14.3929 13.5544 14.3929C13.5544 14.3929 13.4966 15.0576 13.0053 15.1732C12.514 15.2888 11.7047 14.7686 11.5602 14.653C11.4446 14.5663 9.39256 13.2657 8.64112 12.6299C8.4388 12.4565 8.2076 12.1097 8.67 11.705C9.71048 10.7513 10.9532 9.56632 11.7047 8.81488C12.0515 8.46804 12.3983 7.6588 10.9532 8.64144C8.90124 10.0576 6.87812 11.3871 6.87812 11.3871C6.87812 11.3871 6.41568 11.6761 5.54864 11.416C4.68156 11.1559 3.67 10.8091 3.67 10.8091C3.67 10.8091 2.9764 10.3756 4.16136 9.91312Z" fill="white"/>
</g>
<defs>
<clipPath id="clip0_2_16">
<rect width="20" height="20" fill="white"/>
</clipPath>
</defs>
</svg>
