<svg width="23" height="23" viewBox="0 0 23 23" fill="none" xmlns="http://www.w3.org/2000/svg">
<circle cx="11.4" cy="11.4" r="11.4" fill="#B4FCC4"/>
<path d="M9.7494 15.9559C9.63985 15.9555 9.53154 15.9327 9.43121 15.8887C9.33087 15.8447 9.24065 15.7805 9.16616 15.7002L5.28322 11.5696C5.13807 11.4149 5.06031 11.2089 5.06705 10.9969C5.0738 10.7849 5.16449 10.5842 5.31917 10.4391C5.47386 10.2939 5.67987 10.2162 5.89188 10.2229C6.1039 10.2297 6.30455 10.3203 6.4497 10.475L9.74141 13.9825L16.4607 6.63204C16.5288 6.54713 16.6137 6.47705 16.7099 6.42612C16.8062 6.37518 16.9118 6.34446 17.0204 6.33585C17.129 6.32723 17.2381 6.3409 17.3412 6.37601C17.4443 6.41113 17.5391 6.46694 17.6199 6.54004C17.7006 6.61313 17.7655 6.70195 17.8107 6.80105C17.8558 6.90015 17.8802 7.00744 17.8824 7.11632C17.8846 7.2252 17.8645 7.33337 17.8233 7.4342C17.7822 7.53503 17.7209 7.62638 17.6431 7.70264L10.3406 15.6922C10.2668 15.774 10.1769 15.8396 10.0766 15.885C9.9762 15.9304 9.86753 15.9545 9.75739 15.9559H9.7494Z" fill="#2DCD33"/>
</svg>
