<svg width="20" height="20" viewBox="0 0 20 20" fill="none" xmlns="http://www.w3.org/2000/svg">
<g clip-path="url(#clip0_65_4429)">
<path d="M17 0H3C1.34315 0 0 1.34315 0 3V17C0 18.6569 1.34315 20 3 20H17C18.6569 20 20 18.6569 20 17V3C20 1.34315 18.6569 0 17 0Z" fill="#665CA7"/>
<path d="M10.5078 7.26561C10.6683 7.26017 10.8282 7.28776 10.9776 7.34669C11.127 7.40562 11.2626 7.49462 11.3762 7.60817C11.4897 7.72172 11.5787 7.8574 11.6377 8.00678C11.6966 8.15616 11.7242 8.31606 11.7188 8.47655M10.2344 6.21092C10.5728 6.21055 10.9077 6.27889 11.2189 6.41179C11.5302 6.54469 11.8112 6.73939 12.0449 6.98409C12.2786 7.22879 12.4603 7.51841 12.5788 7.83538C12.6973 8.15235 12.7502 8.49008 12.7344 8.82811M9.88281 5.1953C10.4108 5.18302 10.9355 5.28126 11.4233 5.4837C11.9111 5.68614 12.3512 5.98832 12.7153 6.37085C13.0795 6.75338 13.3596 7.2078 13.5378 7.70497C13.716 8.20213 13.7883 8.73106 13.75 9.2578" stroke="white" stroke-width="0.390625" stroke-linecap="round"/>
<path fill-rule="evenodd" clip-rule="evenodd" d="M3.71094 9.0625C3.71094 5.50781 4.375 3.32031 10 3.32031C15.625 3.32031 16.2891 5.50781 16.2891 9.0625C16.2891 12.6172 15.625 14.8047 10 14.8047L8.98438 14.7656L6.91406 17.2266C6.75781 17.3828 6.60156 17.2656 6.60156 17.1094V14.4141C6.36719 14.4141 5.39062 13.9453 5.11719 13.6719C4.25781 12.7734 3.71094 12.1094 3.71094 9.0625ZM2.53906 9.0625C2.53906 4.14062 4.6875 2.14844 10 2.14844C15.3125 2.14844 17.4609 4.14062 17.4609 9.0625C17.4609 13.9844 15.3125 15.9766 10 15.9766C9.60938 15.9766 9.29688 15.9766 8.75 15.8984L7.26562 17.5781C6.99219 17.8906 6.17188 18.0078 6.17188 17.0703V15.4297C5.9375 15.4297 5.39062 15.1953 4.64844 14.7266C3.90625 14.2188 2.53906 13.0078 2.53906 9.0625ZM11.25 10.7031C11.5104 10.3646 11.8229 10.3125 12.1875 10.5469L13.5938 11.6016C13.8021 11.862 13.7109 12.2266 13.3203 12.6953C12.9297 13.1641 12.5651 13.3594 12.2266 13.2812C10.8464 12.9688 9.51823 12.1875 8.24219 10.9375C6.96615 9.6875 6.17188 8.33333 5.85938 6.875C5.85938 6.35417 6.1849 5.91146 6.83594 5.54688C7.17448 5.3125 7.46094 5.3776 7.69531 5.74219L8.67188 7.10938C8.82812 7.42188 8.73698 7.70833 8.39844 7.96875C6.875 8.55469 10.3906 12.3438 11.25 10.7031Z" fill="white"/>
</g>
<defs>
<clipPath id="clip0_65_4429">
<rect width="20" height="20" rx="10" fill="white"/>
</clipPath>
</defs>
</svg>
